<?xml version="1.0" encoding="utf-8"?>
<svg width="200" height="200" version="1.1" xmlns="http://www.w3.org/2000/svg" viewBox="0 0 200 200">
    <g>
        <path d="M47.5,74.5s-9.87,6.91-20.18,7.88c-11.82,1.12-16.27-1-20.38-1.66a1,1,0,0,1-.71-1.48C11.5,67.5,10.5,64.5,23.5,54.5c5.39-4.15,16-10,31-11L50.27,16.42a1,1,0,0,1,1.62-.89L74,33"/>
        <path d="M151.2,74.5s9.87,6.91,20.18,7.88c11.78,1.12,16.23-1,20.34-1.65a1,1,0,0,0,.77-1.45c-5.3-11.77-4.28-14.77-17.29-24.78A56.62,56.62,0,0,0,148.72,44a4.46,4.46,0,0,1-3.8-5.1l3.51-22.44a1,1,0,0,0-1.62-.89L124.7,33"/>
        <circle cx="78" cy="68" r="5"/>
        <circle cx="124" cy="68" r="5"/>
        <path d="M49,70.16,58.49,159a26.79,26.79,0,0,0,26.65,24h43c10.33.5,26-10.47,26.83-35.17.5-14.33-9.5-30.33-23.83-30.83H92.25C80.51,117,71,127.51,71,139.25v11.5A17.25,17.25,0,0,0,88.25,168h34.48a15.35,15.35,0,0,0,15.19-13.13l13-88.34A30.17,30.17,0,0,0,121.11,32H83.37A34.57,34.57,0,0,0,49,70.16Z"/>
    </g>
</svg>